<svg width="28" height="27" viewBox="0 0 28 27" fill="none" xmlns="http://www.w3.org/2000/svg">
<g clip-path="url(#clip0_169_1964)">
<path d="M27.1 13.7884C27.1 11.3831 26.5133 9.16839 25.34 7.14439C24.1667 5.12039 22.568 3.50706 20.544 2.30439C18.52 1.10172 16.3053 0.500391 13.9 0.500391C11.4947 0.500391 9.28001 1.10172 7.25601 2.30439C5.23201 3.50706 3.63335 5.12039 2.46001 7.14439C1.28668 9.16839 0.700012 11.3831 0.700012 13.7884C0.700012 15.9591 1.18401 17.9831 2.15201 19.8604C3.12001 21.7377 4.45468 23.2924 6.15601 24.5244C7.85735 25.7564 9.76401 26.5484 11.876 26.9004V17.6604H8.44401V13.7884H11.876V10.8844C11.876 9.24172 12.316 7.96572 13.196 7.05639C14.076 6.14706 15.2787 5.69239 16.804 5.69239C17.3907 5.69239 18.0653 5.72172 18.828 5.78039L19.796 5.95639V9.21239H18.124C17.3613 9.21239 16.804 9.40306 16.452 9.78439C16.1 10.1657 15.924 10.6791 15.924 11.3244V13.7884H19.62L19.004 17.6604H15.924V26.9004C18.036 26.5484 19.9427 25.7564 21.644 24.5244C23.3453 23.2924 24.68 21.7377 25.648 19.8604C26.616 17.9831 27.1 15.9591 27.1 13.7884Z" fill="white"/>
</g>
<defs>
<clipPath id="clip0_169_1964">
<rect width="26.4" height="26.4" fill="white" transform="matrix(1 0 0 -1 0.700012 26.9004)"/>
</clipPath>
</defs>
</svg>
