<svg width="27" height="28" viewBox="0 0 27 28" fill="none" xmlns="http://www.w3.org/2000/svg">
<path d="M22.5818 2.55273H4.43824C3.07231 2.55273 1.96411 3.66091 1.96411 5.0268V23.1699C1.96411 24.5358 3.07231 25.644 4.43824 25.644H22.5818C23.9478 25.644 25.056 24.5358 25.056 23.1699V5.0268C25.056 3.66091 23.9478 2.55273 22.5818 2.55273ZM9.41227 17.3456C7.60306 17.3456 6.1392 15.8817 6.1392 14.0726C6.1392 12.2634 7.60306 10.7996 9.41227 10.7996C11.2215 10.7996 12.6853 12.2634 12.6853 14.0726C12.6853 15.8817 11.2215 17.3456 9.41227 17.3456ZM17.6078 17.3456C15.7986 17.3456 14.3348 15.8817 14.3348 14.0726C14.3348 12.2634 15.7986 10.7996 17.6078 10.7996C19.417 10.7996 20.8809 12.2634 20.8809 14.0726C20.8809 15.8817 19.417 17.3456 17.6078 17.3456Z" fill="white"/>
</svg>
