<svg width="27" height="27" viewBox="0 0 27 27" fill="none" xmlns="http://www.w3.org/2000/svg">
<g clip-path="url(#clip0_169_1958)">
<path d="M13.3 0.500391C10.836 0.500391 9.00264 0.529724 7.79998 0.58839C6.59731 0.647057 5.55598 0.85239 4.67598 1.20439C3.79598 1.55639 3.01864 2.06973 2.34398 2.74439C1.66931 3.41906 1.15598 4.19639 0.803976 5.07639C0.451976 5.95639 0.246642 6.99772 0.187976 8.20039C0.129309 9.40306 0.0999756 11.2364 0.0999756 13.7004C0.0999756 16.1644 0.129309 17.9977 0.187976 19.2004C0.246642 20.4031 0.451976 21.4444 0.803976 22.3244C1.15598 23.2044 1.66931 23.9817 2.34398 24.6564C3.01864 25.3311 3.79598 25.8444 4.67598 26.1964C5.55598 26.5484 6.59731 26.7537 7.79998 26.8124C9.00264 26.8711 10.836 26.9004 13.3 26.9004C15.764 26.9004 17.5973 26.8711 18.8 26.8124C20.0026 26.7537 21.044 26.5484 21.924 26.1964C22.804 25.8444 23.5813 25.3311 24.256 24.6564C24.9306 23.9817 25.444 23.2044 25.796 22.3244C26.148 21.4444 26.3533 20.4031 26.412 19.2004C26.4706 17.9977 26.5 16.1644 26.5 13.7004C26.5 11.2364 26.4706 9.40306 26.412 8.20039C26.3533 6.99772 26.148 5.95639 25.796 5.07639C25.444 4.19639 24.9306 3.41906 24.256 2.74439C23.5813 2.06973 22.804 1.55639 21.924 1.20439C21.044 0.85239 20.0026 0.647057 18.8 0.58839C17.5973 0.529724 15.764 0.500391 13.3 0.500391ZM12.156 2.87639H13.3C15.764 2.87639 17.5533 2.90572 18.668 2.96439C19.6066 3.02306 20.384 3.16972 21 3.40439C21.616 3.63906 22.144 3.97639 22.584 4.41639C23.024 4.85639 23.3613 5.38439 23.596 6.00039C23.8306 6.61639 23.9773 7.39372 24.036 8.33239C24.0946 9.44706 24.124 11.2364 24.124 13.7004C24.124 16.1644 24.0946 17.9537 24.036 19.0684C23.9773 20.0071 23.8306 20.7844 23.596 21.4004C23.3613 22.0164 23.024 22.5444 22.584 22.9844C22.144 23.4244 21.616 23.7617 21 23.9964C20.384 24.2311 19.6066 24.3777 18.668 24.4364C17.4946 24.4951 15.7053 24.5244 13.3 24.5244C10.8946 24.5244 9.10531 24.4951 7.93198 24.4364C6.99331 24.3777 6.21598 24.2311 5.59998 23.9964C4.98398 23.7617 4.45598 23.4244 4.01598 22.9844C3.57598 22.5444 3.23864 22.0164 3.00398 21.4004C2.76931 20.7844 2.62264 20.0071 2.56398 19.0684C2.50531 17.8951 2.47598 16.0911 2.47598 13.6564C2.47598 11.2217 2.50531 9.44706 2.56398 8.33239C2.62264 7.39372 2.76931 6.61639 3.00398 6.00039C3.23864 5.38439 3.57598 4.85639 4.01598 4.41639C4.45598 3.97639 4.98398 3.63906 5.59998 3.40439C6.21598 3.16972 7.02264 3.02306 8.01998 2.96439C9.01731 2.90572 10.396 2.87639 12.156 2.87639ZM20.34 5.07639C19.9293 5.07639 19.5626 5.22306 19.24 5.51639C18.9173 5.80972 18.756 6.17639 18.756 6.61639C18.756 7.05639 18.9173 7.43772 19.24 7.76039C19.5626 8.08306 19.944 8.24439 20.384 8.24439C20.824 8.24439 21.1906 8.08306 21.484 7.76039C21.7773 7.43772 21.924 7.05639 21.924 6.61639C21.924 6.17639 21.7773 5.80972 21.484 5.51639C21.1906 5.22306 20.8093 5.07639 20.34 5.07639ZM13.3 6.92439C12.068 6.92439 10.924 7.21772 9.86798 7.80439C8.81198 8.39106 7.97598 9.21239 7.35998 10.2684C6.74398 11.3244 6.43598 12.4684 6.43598 13.7004C6.43598 14.9324 6.74398 16.0764 7.35998 17.1324C7.97598 18.1884 8.81198 19.0097 9.86798 19.5964C10.924 20.1831 12.068 20.4764 13.3 20.4764C14.532 20.4764 15.6613 20.1684 16.688 19.5524C17.7146 18.9364 18.5213 18.1151 19.108 17.0884C19.6946 16.0617 19.988 14.9324 19.988 13.7004C19.988 12.4684 19.6946 11.3391 19.108 10.3124C18.5213 9.28572 17.7146 8.46439 16.688 7.84839C15.6613 7.23239 14.532 6.92439 13.3 6.92439ZM13.3 9.30039C14.0626 9.30039 14.796 9.49106 15.5 9.87239C16.204 10.2537 16.7466 10.7964 17.128 11.5004C17.5093 12.2044 17.7 12.9377 17.7 13.7004C17.7 14.4631 17.5093 15.1964 17.128 15.9004C16.7466 16.6044 16.204 17.1471 15.5 17.5284C14.796 17.9097 14.0626 18.1004 13.3 18.1004C12.068 18.1004 11.0266 17.6751 10.176 16.8244C9.32531 15.9737 8.89998 14.9324 8.89998 13.7004C8.89998 12.4684 9.32531 11.4271 10.176 10.5764C11.0266 9.72572 12.068 9.30039 13.3 9.30039Z" fill="white"/>
</g>
<defs>
<clipPath id="clip0_169_1958">
<rect width="26.4" height="26.4" fill="white" transform="matrix(1 0 0 -1 0.0999756 26.9004)"/>
</clipPath>
</defs>
</svg>
