<svg width="27" height="28" viewBox="0 0 27 28" fill="none" xmlns="http://www.w3.org/2000/svg">
<g clip-path="url(#clip0_169_1982)">
<path d="M0.109985 2.74878C0.109985 2.27945 0.300652 1.85411 0.681985 1.47278C1.06332 1.09145 1.51799 0.900782 2.04599 0.900782H24.574C25.102 0.900782 25.5567 1.09145 25.938 1.47278C26.3193 1.85411 26.51 2.27945 26.51 2.74878V25.4528C26.51 25.9221 26.3193 26.3474 25.938 26.7288C25.5567 27.1101 25.102 27.3008 24.574 27.3008H2.04599C1.51799 27.3008 1.06332 27.1101 0.681985 26.7288C0.300652 26.3474 0.109985 25.9221 0.109985 25.4528V2.74878ZM8.29399 22.9888V11.1088H4.33399V22.9888H8.29399ZM6.26999 9.43678C6.97399 9.43678 7.53132 9.24611 7.94199 8.86478C8.35265 8.48345 8.54332 7.99945 8.51399 7.41278C8.48465 6.82611 8.27932 6.32745 7.89799 5.91678C7.51665 5.50611 6.98865 5.30078 6.31399 5.30078C5.63932 5.30078 5.09665 5.50611 4.68599 5.91678C4.27532 6.32745 4.06999 6.82611 4.06999 7.41278C4.06999 7.99945 4.27532 8.48345 4.68599 8.86478C5.09665 9.24611 5.62465 9.43678 6.26999 9.43678ZM14.366 22.9888V16.3008C14.366 15.8901 14.4247 15.5674 14.542 15.3328C14.6593 14.9808 14.894 14.6581 15.246 14.3648C15.598 14.0714 16.038 13.9248 16.566 13.9248C17.27 13.9248 17.7833 14.1594 18.106 14.6288C18.4287 15.0981 18.59 15.7728 18.59 16.6528V22.9888H22.55V16.1248C22.55 14.3648 22.1247 13.0301 21.274 12.1208C20.4233 11.2114 19.3233 10.7568 17.974 10.7568C17.0353 10.7568 16.2433 10.9914 15.598 11.4608C15.1287 11.7541 14.718 12.1941 14.366 12.7808V11.1088H10.406C10.4647 11.5781 10.4647 13.6901 10.406 17.4448V22.9888H14.366Z" fill="white"/>
</g>
<defs>
<clipPath id="clip0_169_1982">
<rect width="26.4" height="26.4" fill="white" transform="matrix(1 0 0 -1 0.109985 27.3008)"/>
</clipPath>
</defs>
</svg>
