<svg width="27" height="27" viewBox="0 0 27 27" fill="none" xmlns="http://www.w3.org/2000/svg">
<g clip-path="url(#clip0_169_1970)">
<path d="M10.772 10.4444C10.42 10.2097 9.77471 9.76972 8.83605 9.12439C9.42271 8.24439 10.1414 7.61372 10.992 7.23239C11.8427 6.85106 12.8254 6.66039 13.94 6.66039C15.5827 6.66039 16.9027 7.17372 17.9 8.20039C18.8974 9.22706 19.4547 10.6791 19.572 12.5564C20.1 12.7911 20.5987 13.0551 21.068 13.3484C22.0067 13.9351 22.7107 14.6831 23.18 15.5924C23.6494 16.5017 23.884 17.4844 23.884 18.5404C23.884 20.0657 23.488 21.4591 22.696 22.7204C21.904 23.9817 20.7307 24.9937 19.176 25.7564C17.6214 26.5191 15.788 26.9004 13.676 26.9004C11.564 26.9004 9.68671 26.4897 8.04405 25.6684C6.16671 24.7297 4.72938 23.3511 3.73205 21.5324C2.55871 19.4204 1.97205 16.8097 1.97205 13.7004C1.97205 10.5911 2.52938 7.98039 3.64405 5.86839C4.64138 4.04972 6.07871 2.67106 7.95605 1.73239C9.59871 0.911057 11.476 0.500391 13.588 0.500391C15.876 0.500391 17.812 0.911057 19.396 1.73239C22.1534 3.02306 24.0307 5.36972 25.028 8.77239L22.828 9.38839C21.948 6.86572 20.5987 5.07639 18.78 4.02039C17.4307 3.25772 15.6707 2.87639 13.5 2.87639C10.508 2.87639 8.22005 3.80039 6.63605 5.64839C5.05205 7.49639 4.26005 10.2977 4.26005 14.0524C4.26005 17.3964 5.09605 19.9777 6.76805 21.7964C8.44005 23.6151 10.7134 24.5244 13.588 24.5244C15.1134 24.5244 16.4774 24.2751 17.68 23.7764C18.8827 23.2777 19.836 22.5884 20.54 21.7084C21.244 20.8284 21.596 19.8017 21.596 18.6284C21.596 17.9244 21.42 17.2791 21.068 16.6924C20.8334 16.2817 20.54 15.9151 20.188 15.5924C19.836 15.2697 19.6014 15.1084 19.484 15.1084C19.1907 16.6337 18.7214 17.8071 18.076 18.6284C17.02 19.9777 15.4947 20.6524 13.5 20.6524C12.1507 20.6524 10.9774 20.2271 9.98005 19.3764C8.98271 18.5257 8.48405 17.5137 8.48405 16.3404C8.48405 14.7564 9.15871 13.5537 10.508 12.7324C11.564 12.0284 12.8547 11.6764 14.38 11.6764C15.5534 11.6764 16.4627 11.7351 17.108 11.8524C17.108 11.2071 16.8734 10.5911 16.404 10.0044C15.8174 9.35906 15.04 9.03639 14.072 9.03639C13.104 9.03639 12.356 9.15372 11.828 9.38839C11.5347 9.56439 11.1827 9.88706 10.772 10.3564L10.684 10.4444H10.772ZM14.644 14.0524C13.1774 14.0524 12.1214 14.3164 11.476 14.8444C11.0654 15.1964 10.86 15.6951 10.86 16.3404C10.86 16.9857 11.1827 17.4844 11.828 17.8364C12.356 18.1297 12.9134 18.2764 13.5 18.2764C14.556 18.2764 15.348 18.0417 15.876 17.5724C16.6387 16.9857 17.0787 15.9004 17.196 14.3164C16.3747 14.0817 15.524 13.9937 14.644 14.0524Z" fill="white"/>
</g>
<defs>
<clipPath id="clip0_169_1970">
<rect width="26.4" height="26.4" fill="white" transform="matrix(1 0 0 -1 0.300049 26.9004)"/>
</clipPath>
</defs>
</svg>
