<svg width="27" height="28" viewBox="0 0 27 28" fill="none" xmlns="http://www.w3.org/2000/svg">
<g clip-path="url(#clip0_169_1976)">
<path d="M22.9485 4.77278C21.716 3.54078 20.2928 2.58745 18.6789 1.91278C17.0649 1.23812 15.407 0.900782 13.705 0.900782C11.3574 0.900782 9.17128 1.48745 7.14652 2.66078C5.12175 3.83411 3.52248 5.41812 2.3487 7.41278C1.17492 9.40745 0.588033 11.5781 0.588033 13.9248C0.588033 16.2714 1.17492 18.4714 2.3487 20.5248L0.5 27.3008L7.45463 25.4528C9.39137 26.5088 11.4748 27.0368 13.705 27.0368C16.0526 27.0368 18.2387 26.4501 20.2635 25.2768C22.2883 24.1034 23.8875 22.5194 25.0613 20.5248C26.2351 18.5301 26.822 16.3594 26.822 14.0128C26.822 12.2528 26.4845 10.5661 25.8096 8.95278C25.1347 7.33945 24.181 5.94612 22.9485 4.77278ZM13.705 24.8368C11.7096 24.8368 9.86088 24.3381 8.1589 23.3408L7.71873 23.0768L3.6692 24.2208L4.7256 20.1728L4.4615 19.7328C3.34641 17.9728 2.78887 16.0808 2.78887 14.0568C2.78887 12.0328 3.28772 10.1848 4.28543 8.51278C5.28314 6.84078 6.60364 5.52078 8.24693 4.55278C9.89022 3.58478 11.7096 3.10078 13.705 3.10078C15.1722 3.10078 16.5661 3.37945 17.8866 3.93678C19.2071 4.49411 20.3809 5.28611 21.4079 6.31278C22.435 7.33945 23.2273 8.51278 23.7848 9.83278C24.3424 11.1528 24.5918 12.5461 24.5331 14.0128C24.5331 15.9488 24.0489 17.7528 23.0806 19.4248C22.1122 21.0968 20.7917 22.4168 19.1191 23.3848C17.4464 24.3528 15.6417 24.8368 13.705 24.8368ZM19.6913 16.7408C18.4588 16.0954 17.7252 15.7434 17.4904 15.6848C17.2557 15.6261 17.0943 15.5968 17.0063 15.5968C16.9182 15.5968 16.8155 15.6554 16.6981 15.7728C16.4634 16.1248 16.1112 16.5648 15.6417 17.0928C15.4657 17.2688 15.2309 17.2981 14.9375 17.1808L14.7614 17.0928C13.8224 16.6821 13.0154 16.1688 12.3405 15.5528C11.6656 14.9368 11.064 14.1888 10.5358 13.3088C10.4184 13.1328 10.3744 13.0008 10.4038 12.9128C10.4331 12.8248 10.5065 12.7221 10.6238 12.6048L11.152 12.0768C11.2107 11.9594 11.2988 11.8128 11.4161 11.6368L11.5042 11.5488C11.5629 11.3728 11.5335 11.1674 11.4161 10.9328L10.4478 8.46878C10.3304 8.23412 10.2277 8.08745 10.1397 8.02878C10.0516 7.97011 9.91957 7.94078 9.7435 7.94078H9.03923C8.6871 7.94078 8.39366 8.08745 8.1589 8.38078C7.86546 8.73278 7.6307 9.05545 7.45463 9.34878C7.16119 9.81812 7.01447 10.3901 7.01447 11.0648C7.01447 11.7394 7.21988 12.4874 7.6307 13.3088C7.86546 13.7194 8.12956 14.1008 8.423 14.4528V14.5408C8.9512 15.3034 9.53809 16.0074 10.1837 16.6528C11.4161 17.9434 12.6779 18.8528 13.9691 19.3808C14.4973 19.6154 15.0989 19.8354 15.7738 20.0408C16.4487 20.2461 17.1676 20.2901 17.9306 20.1728C18.2827 20.1728 18.6936 20.0114 19.1631 19.6888C19.6326 19.3661 19.9407 19.0288 20.0874 18.6768C20.2341 18.3248 20.3222 18.0021 20.3515 17.7088C20.3809 17.4154 20.3662 17.2248 20.3075 17.1368C20.2488 17.0488 20.1021 16.9461 19.8673 16.8288L19.6913 16.7408Z" fill="white"/>
</g>
<defs>
<clipPath id="clip0_169_1976">
<rect width="26.41" height="26.4" fill="white" transform="matrix(1 0 0 -1 0.5 27.3008)"/>
</clipPath>
</defs>
</svg>
