<svg width="28" height="28" viewBox="0 0 28 28" fill="none" xmlns="http://www.w3.org/2000/svg">
<g clip-path="url(#clip0_169_1988)">
<path d="M13.998 4.15661H14.174C15.8754 4.21527 17.4887 4.27394 19.014 4.33261C21.7127 4.39128 23.4434 4.53794 24.206 4.77261C24.7927 4.88994 25.2914 5.16861 25.702 5.60861C26.1127 6.04861 26.3914 6.54728 26.538 7.10461C26.6847 7.66194 26.8167 8.43927 26.934 9.43661L27.022 10.1406C27.0807 11.2553 27.11 12.3406 27.11 13.3966V13.5726C27.11 14.6873 27.0514 15.8019 26.934 16.9166V17.2686C26.8167 18.3833 26.6847 19.2339 26.538 19.8206C26.3914 20.4073 26.1127 20.9059 25.702 21.3166C25.2914 21.7273 24.7927 22.0206 24.206 22.1966C23.3847 22.4313 21.566 22.5779 18.75 22.6366C17.166 22.6953 15.582 22.7246 13.998 22.7246H13.822C12.238 22.7246 10.6247 22.6953 8.98202 22.6366H8.01402C5.78469 22.5193 4.34736 22.3726 3.70202 22.1966C3.05669 22.0206 2.52869 21.7273 2.11802 21.3166C1.70736 20.9059 1.41402 20.4073 1.23802 19.8206C1.06202 19.2339 0.944689 18.3833 0.886022 17.2686V16.9166C0.768689 15.8019 0.710022 14.6873 0.710022 13.5726V13.3966C0.710022 12.3406 0.739355 11.3433 0.798022 10.4046L0.886022 9.43661C1.00336 8.43927 1.13536 7.66194 1.28202 7.10461C1.42869 6.54728 1.70736 6.04861 2.11802 5.60861C2.52869 5.16861 3.02736 4.88994 3.61402 4.77261C4.31802 4.59661 5.78469 4.44994 8.01402 4.33261L8.98202 4.24461C10.566 4.24461 12.1207 4.21527 13.646 4.15661H13.998ZM11.27 9.52461V17.4446L18.134 13.4846L11.27 9.52461Z" fill="white"/>
</g>
<defs>
<clipPath id="clip0_169_1988">
<rect width="26.4" height="26.4" fill="white" transform="matrix(1 0 0 -1 0.710022 27.3008)"/>
</clipPath>
</defs>
</svg>
