<svg width="18" height="18" viewBox="0 0 18 18" fill="none" xmlns="http://www.w3.org/2000/svg">
<path d="M5.18182 1.18443C5.30303 1.06147 5.44444 1 5.60606 1C5.76768 1 5.88889 1.06147 5.9697 1.18443L12.8182 8.06967C12.9394 8.19262 13 8.33607 13 8.5C13 8.66393 12.9394 8.80738 12.8182 8.93033L5.9697 15.8156C5.88889 15.9385 5.76768 16 5.60606 16C5.44444 16 5.30303 15.9385 5.18182 15.8156C5.06061 15.6926 5 15.5594 5 15.416C5 15.2725 5.06061 15.1393 5.18182 15.0164L11.6061 8.5L5.18182 1.98361C5.06061 1.86066 5 1.72746 5 1.58402C5 1.44057 5.06061 1.30738 5.18182 1.18443Z" fill="black"/>
</svg>
