<svg width="20" height="21" viewBox="0 0 20 21" fill="none" xmlns="http://www.w3.org/2000/svg">
<path d="M10 20.5C8.61667 20.5 7.31667 20.2373 6.1 19.712C4.88334 19.1867 3.825 18.4743 2.925 17.575C2.025 16.6757 1.31267 15.6173 0.788001 14.4C0.263335 13.1827 0.000667933 11.8827 1.26582e-06 10.5C-0.000665401 9.11733 0.262001 7.81733 0.788001 6.6C1.314 5.38267 2.02633 4.32433 2.925 3.425C3.82367 2.52567 4.882 1.81333 6.1 1.288C7.318 0.762667 8.618 0.5 10 0.5C11.382 0.5 12.682 0.762667 13.9 1.288C15.118 1.81333 16.1763 2.52567 17.075 3.425C17.9737 4.32433 18.6863 5.38267 19.213 6.6C19.7397 7.81733 20.002 9.11733 20 10.5C19.998 11.8827 19.7353 13.1827 19.212 14.4C18.6887 15.6173 17.9763 16.6757 17.075 17.575C16.1737 18.4743 15.1153 19.187 13.9 19.713C12.6847 20.239 11.3847 20.5013 10 20.5ZM10 18.5C12.2333 18.5 14.125 17.725 15.675 16.175C17.225 14.625 18 12.7333 18 10.5C18 10.3833 17.996 10.2623 17.988 10.137C17.98 10.0117 17.9757 9.90767 17.975 9.825C17.8917 10.3083 17.6667 10.7083 17.3 11.025C16.9333 11.3417 16.5 11.5 16 11.5H14C13.45 11.5 12.9793 11.3043 12.588 10.913C12.1967 10.5217 12.0007 10.0507 12 9.5V8.5H8V6.5C8 5.95 8.196 5.47933 8.588 5.088C8.98 4.69667 9.45067 4.50067 10 4.5H11C11 4.11667 11.1043 3.77933 11.313 3.488C11.5217 3.19667 11.7757 2.959 12.075 2.775C11.7417 2.69167 11.4043 2.625 11.063 2.575C10.7217 2.525 10.3673 2.5 10 2.5C7.76667 2.5 5.875 3.275 4.325 4.825C2.775 6.375 2 8.26667 2 10.5H7C8.1 10.5 9.04167 10.8917 9.825 11.675C10.6083 12.4583 11 13.4 11 14.5V15.5H8V18.25C8.33333 18.3333 8.66267 18.396 8.988 18.438C9.31333 18.48 9.65067 18.5007 10 18.5Z" fill="#1B572C"/>
</svg>
